<mxfile host="65bd71144e">
    <diagram id="M2AHIJhCscEchblYLDz4" name="业务流程泳道图">
        <mxGraphModel dx="1531" dy="804" grid="1" gridSize="10" guides="1" tooltips="1" connect="1" arrows="1" fold="1" page="1" pageScale="1" pageWidth="1169" pageHeight="827" math="0" shadow="0">
            <root>
                <mxCell id="0"/>
                <mxCell id="1" parent="0"/>
                <mxCell id="2" value="番茄商城购物业务流程" style="swimlane;childLayout=stackLayout;resizeParent=1;resizeParentMax=0;startSize=30;html=1;fontSize=14;fontStyle=1;rounded=1;" parent="1" vertex="1">
                    <mxGeometry x="50" y="50" width="1000" height="740" as="geometry"/>
                </mxCell>
                <mxCell id="3" value="顾客" style="swimlane;startSize=30;html=1;fillColor=#dae8fc;strokeColor=#6c8ebf;rounded=1;" parent="2" vertex="1">
                    <mxGeometry y="30" width="250" height="710" as="geometry"/>
                </mxCell>
                <mxCell id="20" value="开始" style="ellipse;whiteSpace=wrap;html=1;fillColor=#d5e8d4;strokeColor=#82b366;rounded=1;" parent="3" vertex="1">
                    <mxGeometry x="85" y="50" width="80" height="40" as="geometry"/>
                </mxCell>
                <mxCell id="21" value="浏览商品列表" style="rounded=1;whiteSpace=wrap;html=1;fillColor=#DAE8FC;strokeColor=#6C8EBF;" parent="3" vertex="1">
                    <mxGeometry x="65" y="130" width="120" height="60" as="geometry"/>
                </mxCell>
                <mxCell id="22" value="查看商品详情" style="rounded=1;whiteSpace=wrap;html=1;fillColor=#DAE8FC;strokeColor=#6C8EBF;" parent="3" vertex="1">
                    <mxGeometry x="65" y="230" width="120" height="60" as="geometry"/>
                </mxCell>
                <mxCell id="23" value="添加商品到购物车" style="rounded=1;whiteSpace=wrap;html=1;fillColor=#DAE8FC;strokeColor=#6C8EBF;" parent="3" vertex="1">
                    <mxGeometry x="65" y="330" width="120" height="60" as="geometry"/>
                </mxCell>
                <mxCell id="24" value="提交订单" style="rounded=1;whiteSpace=wrap;html=1;fillColor=#DAE8FC;strokeColor=#6C8EBF;" parent="3" vertex="1">
                    <mxGeometry x="65" y="430" width="120" height="60" as="geometry"/>
                </mxCell>
                <mxCell id="35" value="选择支付方式&lt;br&gt;并进行支付" style="rounded=1;whiteSpace=wrap;html=1;fillColor=#DAE8FC;strokeColor=#6C8EBF;" parent="3" vertex="1">
                    <mxGeometry x="65" y="530" width="120" height="60" as="geometry"/>
                </mxCell>
                <mxCell id="44" value="结束" style="ellipse;whiteSpace=wrap;html=1;fillColor=#d5e8d4;strokeColor=#82b366;rounded=1;" parent="3" vertex="1">
                    <mxGeometry x="85" y="620" width="80" height="40" as="geometry"/>
                </mxCell>
                <mxCell id="45" style="edgeStyle=orthogonalEdgeStyle;html=1;exitX=0.5;exitY=1;exitDx=0;exitDy=0;entryX=0.5;entryY=0;entryDx=0;entryDy=0;rounded=1;" parent="3" source="20" target="21" edge="1">
                    <mxGeometry relative="1" as="geometry"/>
                </mxCell>
                <mxCell id="46" style="edgeStyle=orthogonalEdgeStyle;html=1;exitX=0.5;exitY=1;exitDx=0;exitDy=0;entryX=0.5;entryY=0;entryDx=0;entryDy=0;rounded=1;" parent="3" source="21" target="22" edge="1">
                    <mxGeometry relative="1" as="geometry"/>
                </mxCell>
                <mxCell id="47" style="edgeStyle=orthogonalEdgeStyle;html=1;exitX=0.5;exitY=1;exitDx=0;exitDy=0;entryX=0.5;entryY=0;entryDx=0;entryDy=0;rounded=1;" parent="3" source="22" target="23" edge="1">
                    <mxGeometry relative="1" as="geometry"/>
                </mxCell>
                <mxCell id="48" style="edgeStyle=orthogonalEdgeStyle;html=1;exitX=0.5;exitY=1;exitDx=0;exitDy=0;entryX=0.5;entryY=0;entryDx=0;entryDy=0;rounded=1;" parent="3" source="23" target="24" edge="1">
                    <mxGeometry relative="1" as="geometry"/>
                </mxCell>
                <mxCell id="49" style="edgeStyle=orthogonalEdgeStyle;html=1;exitX=0.5;exitY=1;exitDx=0;exitDy=0;entryX=0.5;entryY=0;entryDx=0;entryDy=0;rounded=1;" parent="3" source="24" target="35" edge="1">
                    <mxGeometry relative="1" as="geometry"/>
                </mxCell>
                <mxCell id="59" style="edgeStyle=orthogonalEdgeStyle;html=1;exitX=0.5;exitY=1;exitDx=0;exitDy=0;entryX=0.5;entryY=0;entryDx=0;entryDy=0;rounded=1;" parent="3" source="35" target="44" edge="1">
                    <mxGeometry relative="1" as="geometry"/>
                </mxCell>
                <mxCell id="4" value="系统平台" style="swimlane;startSize=30;html=1;fillColor=#f8cecc;strokeColor=#b85450;rounded=1;" parent="2" vertex="1">
                    <mxGeometry x="250" y="30" width="250" height="710" as="geometry"/>
                </mxCell>
                <mxCell id="25" value="展示商品列表" style="rounded=1;whiteSpace=wrap;html=1;fillColor=#f8cecc;strokeColor=#b85450;" parent="4" vertex="1">
                    <mxGeometry x="65" y="130" width="120" height="60" as="geometry"/>
                </mxCell>
                <mxCell id="26" value="提供商品详情" style="rounded=1;whiteSpace=wrap;html=1;fillColor=#f8cecc;strokeColor=#b85450;" parent="4" vertex="1">
                    <mxGeometry x="65" y="230" width="120" height="60" as="geometry"/>
                </mxCell>
                <mxCell id="27" value="更新购物车" style="rounded=1;whiteSpace=wrap;html=1;fillColor=#f8cecc;strokeColor=#b85450;" parent="4" vertex="1">
                    <mxGeometry x="65" y="330" width="120" height="60" as="geometry"/>
                </mxCell>
                <mxCell id="95" value="" style="edgeStyle=none;html=1;" edge="1" parent="4" source="28" target="27">
                    <mxGeometry relative="1" as="geometry"/>
                </mxCell>
                <mxCell id="28" value="创建订单" style="rounded=1;whiteSpace=wrap;html=1;fillColor=#f8cecc;strokeColor=#b85450;" parent="4" vertex="1">
                    <mxGeometry x="65" y="430" width="120" height="60" as="geometry"/>
                </mxCell>
                <mxCell id="96" value="" style="edgeStyle=none;html=1;" edge="1" parent="4" source="28" target="36">
                    <mxGeometry relative="1" as="geometry"/>
                </mxCell>
                <mxCell id="36" value="生成支付单据" style="rounded=1;whiteSpace=wrap;html=1;fillColor=#f8cecc;strokeColor=#b85450;" parent="4" vertex="1">
                    <mxGeometry x="65" y="530" width="120" height="60" as="geometry"/>
                </mxCell>
                <mxCell id="42" value="更新订单状态" style="rounded=1;whiteSpace=wrap;html=1;fillColor=#f8cecc;strokeColor=#b85450;" parent="4" vertex="1">
                    <mxGeometry x="65" y="620" width="120" height="40" as="geometry"/>
                </mxCell>
                <mxCell id="5" value="支付系统" style="swimlane;startSize=30;html=1;fillColor=#e1d5e7;strokeColor=#9673a6;rounded=1;" parent="2" vertex="1">
                    <mxGeometry x="500" y="30" width="250" height="710" as="geometry"/>
                </mxCell>
                <mxCell id="94" value="" style="edgeStyle=none;html=1;" edge="1" parent="5" source="37" target="38">
                    <mxGeometry relative="1" as="geometry"/>
                </mxCell>
                <mxCell id="37" value="处理支付请求" style="rounded=1;whiteSpace=wrap;html=1;fillColor=#e1d5e7;strokeColor=#9673a6;" parent="5" vertex="1">
                    <mxGeometry x="65" y="530" width="120" height="60" as="geometry"/>
                </mxCell>
                <mxCell id="38" value="返回支付结果" style="rounded=1;whiteSpace=wrap;html=1;fillColor=#e1d5e7;strokeColor=#9673a6;" parent="5" vertex="1">
                    <mxGeometry x="65" y="620" width="120" height="40" as="geometry"/>
                </mxCell>
                <mxCell id="6" value="管理员" style="swimlane;startSize=30;html=1;fillColor=#fff2cc;strokeColor=#d6b656;rounded=1;" parent="2" vertex="1">
                    <mxGeometry x="750" y="30" width="250" height="710" as="geometry"/>
                </mxCell>
                <mxCell id="29" value="管理商品详情" style="rounded=1;whiteSpace=wrap;html=1;fillColor=#FFF2CC;strokeColor=#d79b00;" parent="6" vertex="1">
                    <mxGeometry x="65" y="230" width="120" height="60" as="geometry"/>
                </mxCell>
                <mxCell id="30" value="审核订单" style="rounded=1;whiteSpace=wrap;html=1;fillColor=#FFF2CC;strokeColor=#D79B00;" parent="6" vertex="1">
                    <mxGeometry x="65" y="430" width="120" height="60" as="geometry"/>
                </mxCell>
                <mxCell id="43" value="处理发货" style="rounded=1;whiteSpace=wrap;html=1;fillColor=#FFF2CC;strokeColor=#D79B00;" parent="6" vertex="1">
                    <mxGeometry x="65" y="620" width="120" height="40" as="geometry"/>
                </mxCell>
                <mxCell id="80" value="管理商品列表" style="rounded=1;whiteSpace=wrap;html=1;fillColor=#FFF2CC;strokeColor=#d79b00;" vertex="1" parent="6">
                    <mxGeometry x="65" y="130" width="120" height="60" as="geometry"/>
                </mxCell>
                <mxCell id="50" style="edgeStyle=orthogonalEdgeStyle;html=1;exitX=1;exitY=0.5;exitDx=0;exitDy=0;entryX=0;entryY=0.5;entryDx=0;entryDy=0;rounded=1;" parent="2" source="21" target="25" edge="1">
                    <mxGeometry relative="1" as="geometry"/>
                </mxCell>
                <mxCell id="51" style="edgeStyle=orthogonalEdgeStyle;html=1;exitX=1;exitY=0.5;exitDx=0;exitDy=0;entryX=0;entryY=0.5;entryDx=0;entryDy=0;rounded=1;" parent="2" source="22" target="26" edge="1">
                    <mxGeometry relative="1" as="geometry"/>
                </mxCell>
                <mxCell id="52" style="edgeStyle=orthogonalEdgeStyle;html=1;exitX=1;exitY=0.5;exitDx=0;exitDy=0;entryX=0;entryY=0.5;entryDx=0;entryDy=0;rounded=1;" parent="2" source="23" target="27" edge="1">
                    <mxGeometry relative="1" as="geometry"/>
                </mxCell>
                <mxCell id="53" style="edgeStyle=orthogonalEdgeStyle;html=1;exitX=1;exitY=0.5;exitDx=0;exitDy=0;entryX=0;entryY=0.5;entryDx=0;entryDy=0;rounded=1;" parent="2" source="24" target="28" edge="1">
                    <mxGeometry relative="1" as="geometry"/>
                </mxCell>
                <mxCell id="56" style="edgeStyle=orthogonalEdgeStyle;html=1;exitX=1;exitY=0.5;exitDx=0;exitDy=0;entryX=0;entryY=0.5;entryDx=0;entryDy=0;rounded=1;" parent="2" source="35" target="36" edge="1">
                    <mxGeometry relative="1" as="geometry"/>
                </mxCell>
                <mxCell id="57" style="edgeStyle=orthogonalEdgeStyle;html=1;exitX=1;exitY=0.5;exitDx=0;exitDy=0;entryX=0;entryY=0.5;entryDx=0;entryDy=0;rounded=1;" parent="2" source="36" target="37" edge="1">
                    <mxGeometry relative="1" as="geometry"/>
                </mxCell>
                <mxCell id="60" style="edgeStyle=orthogonalEdgeStyle;html=1;exitX=0;exitY=0.5;exitDx=0;exitDy=0;entryX=1;entryY=0.5;entryDx=0;entryDy=0;rounded=1;" parent="2" source="38" target="42" edge="1">
                    <mxGeometry relative="1" as="geometry"/>
                </mxCell>
                <mxCell id="76" value="" style="edgeStyle=orthogonalEdgeStyle;html=1;entryX=1;entryY=0.5;entryDx=0;entryDy=0;" edge="1" parent="2" source="29" target="26">
                    <mxGeometry relative="1" as="geometry">
                        <mxPoint x="735" y="240" as="targetPoint"/>
                    </mxGeometry>
                </mxCell>
                <mxCell id="79" value="" style="edgeStyle=none;html=1;exitX=0;exitY=0.5;exitDx=0;exitDy=0;" edge="1" parent="2" source="42" target="44">
                    <mxGeometry relative="1" as="geometry">
                        <mxPoint x="260" y="670" as="sourcePoint"/>
                    </mxGeometry>
                </mxCell>
                <mxCell id="81" value="" style="edgeStyle=none;html=1;exitX=0;exitY=0.5;exitDx=0;exitDy=0;" edge="1" parent="2" source="80" target="25">
                    <mxGeometry relative="1" as="geometry">
                        <mxPoint x="515" y="190" as="sourcePoint"/>
                    </mxGeometry>
                </mxCell>
                <mxCell id="91" value="" style="edgeStyle=none;html=1;entryX=0;entryY=0.5;entryDx=0;entryDy=0;exitX=1;exitY=0.5;exitDx=0;exitDy=0;" edge="1" parent="2" source="28" target="30">
                    <mxGeometry relative="1" as="geometry">
                        <mxPoint x="765" y="590" as="targetPoint"/>
                    </mxGeometry>
                </mxCell>
                <mxCell id="93" value="" style="edgeStyle=none;html=1;entryX=0;entryY=0.5;entryDx=0;entryDy=0;" edge="1" parent="2" source="38" target="43">
                    <mxGeometry relative="1" as="geometry">
                        <mxPoint x="765" y="670" as="targetPoint"/>
                    </mxGeometry>
                </mxCell>
            </root>
        </mxGraphModel>
    </diagram>
</mxfile>